<svg xmlns="http://www.w3.org/2000/svg" xmlns:xlink="http://www.w3.org/1999/xlink" fill="none" version="1.1" width="38" height="38" viewBox="0 0 38 38"><defs><clipPath id="master_svg0_1_14"><rect x="0" y="0" width="38" height="38" rx="0"/></clipPath></defs><g clip-path="url(#master_svg0_1_14)"><g style="mix-blend-mode:passthrough"><rect x="10" y="12" width="20" height="14" rx="0" fill="#FFFFFF" fill-opacity="1"/></g><g><path d="M3.1666738291596874,14.24052C3.1631640629296873,8.99389,7.420061752929687,4.74125455,12.666671752929688,4.7500150998L25.333371752929686,4.7500150998C30.578971752929686,4.7500150998,34.833371752929686,9.0171,34.833371752929686,14.24052L34.833371752929686,33.25L12.666671752929688,33.25C7.421091752929687,33.25,3.1666738291596874,28.9829,3.1666738291596874,23.7595L3.1666738291596874,14.24052ZM22.166671752929688,17.4167L22.166671752929688,20.583399999999997L25.333371752929686,20.583399999999997L25.333371752929686,17.4167L22.166671752929688,17.4167ZM12.666671752929688,17.4167L12.666671752929688,20.583399999999997L15.833371752929688,20.583399999999997L15.833371752929688,17.4167L12.666671752929688,17.4167Z" fill="#1989FA" fill-opacity="1"/></g></g></svg>